<svg width="35" height="35" viewBox="0 0 35 35" fill="none" xmlns="http://www.w3.org/2000/svg">
<path d="M24.0406 16.8744C23.6242 16.7626 23.1899 16.734 22.7624 16.7902C22.335 16.8463 21.9227 16.9862 21.5493 17.2017C21.176 17.4172 20.8487 17.7043 20.5863 18.0464C20.3239 18.3884 20.1315 18.7789 20.02 19.1954L19.1713 22.3651C18.7208 24.0464 18.9566 25.8378 19.8269 27.3452C20.6973 28.8526 22.1307 29.9525 23.812 30.403C25.4934 30.8535 27.2848 30.6177 28.7922 29.7474C30.2996 28.8771 31.3995 27.4436 31.85 25.7623L32.6988 22.5904C32.9233 21.7503 32.8052 20.8555 32.3705 20.1024C31.9357 19.3494 31.2198 18.7997 30.38 18.5741L24.0406 16.8744Z" fill="#B3B5B3"/>
<path d="M10.9593 16.8744C11.3756 16.7629 11.8097 16.7345 12.2369 16.7908C12.6642 16.8471 13.0761 16.9871 13.4493 17.2026C13.8224 17.4181 14.1494 17.705 14.4117 18.0469C14.674 18.3888 14.8663 18.7791 14.9778 19.1953L15.8265 22.365C16.0624 23.2014 16.1299 24.0763 16.025 24.939C15.92 25.8017 15.6448 26.6349 15.2152 27.3903C14.7857 28.1458 14.2104 28.8084 13.5227 29.3397C12.835 29.871 12.0486 30.2604 11.2092 30.4854C10.3698 30.7103 9.49408 30.7663 8.63286 30.6501C7.77163 30.5339 6.94207 30.2478 6.19232 29.8084C5.44256 29.369 4.78754 28.785 4.26528 28.0905C3.74301 27.3959 3.36391 26.6045 3.14996 25.7622L2.29902 22.5903C2.07455 21.75 2.19293 20.8549 2.62814 20.1018C3.06335 19.3487 3.77978 18.7992 4.61996 18.5741L10.9593 16.8744Z" fill="#B3B5B3"/>
<path d="M14.2188 15.3125C13.3485 15.3125 12.5139 15.6582 11.8986 16.2736C11.2832 16.8889 10.9375 17.7235 10.9375 18.5938V24.0625C10.9375 25.803 11.6289 27.4722 12.8596 28.7029C14.0903 29.9336 15.7595 30.625 17.5 30.625C19.2405 30.625 20.9097 29.9336 22.1404 28.7029C23.3711 27.4722 24.0625 25.803 24.0625 24.0625V18.5938C24.0625 17.7235 23.7168 16.8889 23.1014 16.2736C22.4861 15.6582 21.6515 15.3125 20.7812 15.3125H14.2188Z" fill="#969696"/>
<path d="M17.5 2.1875C16.0496 2.1875 14.6586 2.76367 13.633 3.78926C12.6074 4.81485 12.0313 6.20585 12.0312 7.65625C12.0313 9.10665 12.6074 10.4977 13.633 11.5232C14.6586 12.5488 16.0496 13.125 17.5 13.125C18.9504 13.125 20.3414 12.5488 21.367 11.5232C22.3926 10.4977 22.9688 9.10665 22.9688 7.65625C22.9688 6.20585 22.3926 4.81485 21.367 3.78926C20.3414 2.76367 18.9504 2.1875 17.5 2.1875Z" fill="#969696"/>
<path d="M6.5625 6.5625C5.40218 6.5625 4.28938 7.02344 3.46891 7.84391C2.64844 8.66438 2.1875 9.77718 2.1875 10.9375C2.1875 12.0978 2.64844 13.2106 3.46891 14.0311C4.28938 14.8516 5.40218 15.3125 6.5625 15.3125C7.72282 15.3125 8.83562 14.8516 9.65609 14.0311C10.4766 13.2106 10.9375 12.0978 10.9375 10.9375C10.9375 9.77718 10.4766 8.66438 9.65609 7.84391C8.83562 7.02344 7.72282 6.5625 6.5625 6.5625Z" fill="#B3B5B3"/>
<path d="M28.4375 6.5625C27.2772 6.5625 26.1644 7.02344 25.3439 7.84391C24.5234 8.66438 24.0625 9.77718 24.0625 10.9375C24.0625 12.0978 24.5234 13.2106 25.3439 14.0311C26.1644 14.8516 27.2772 15.3125 28.4375 15.3125C29.5978 15.3125 30.7106 14.8516 31.5311 14.0311C32.3516 13.2106 32.8125 12.0978 32.8125 10.9375C32.8125 9.77718 32.3516 8.66438 31.5311 7.84391C30.7106 7.02344 29.5978 6.5625 28.4375 6.5625Z" fill="#B3B5B3"/>
</svg>
