<svg width="35" height="35" viewBox="0 0 35 35" fill="none" xmlns="http://www.w3.org/2000/svg">
<path d="M10.6094 5.18877C10.0603 5.50596 9.48281 6.37877 9.415 8.28627C9.39575 8.71835 9.20665 9.12535 8.88885 9.41873C8.57106 9.7121 8.15027 9.86812 7.71803 9.85284C7.28579 9.83755 6.87707 9.65221 6.58079 9.33712C6.2845 9.02203 6.12463 8.6027 6.13594 8.17034C6.21906 5.83409 6.95844 3.50877 8.96875 2.34721C10.9856 1.18346 13.3766 1.71284 15.4459 2.81534C15.83 3.02013 16.117 3.36911 16.2437 3.7855C16.3705 4.20189 16.3267 4.65158 16.1219 5.03565C15.9171 5.41971 15.5681 5.7067 15.1517 5.83346C14.7353 5.96022 14.2856 5.91638 13.9016 5.71159C12.2106 4.80815 11.1606 4.87377 10.6094 5.18877ZM19.4053 8.03034C19.5713 7.89301 19.7628 7.78973 19.9688 7.72641C20.1747 7.66308 20.3911 7.64094 20.6056 7.66125C20.8201 7.68157 21.0285 7.74393 21.2189 7.8448C21.4093 7.94566 21.578 8.08303 21.7153 8.24909C22.9966 9.80408 24.1454 11.4636 25.1497 13.2103C27.4247 17.1522 28.8269 21.1903 29.2053 24.5766C29.3934 26.2675 29.3366 27.8775 28.9428 29.2578C28.5425 30.6469 27.7681 31.9047 26.4688 32.655C24.8959 33.5628 23.0781 33.436 21.4178 32.83C19.7509 32.2219 18.0337 31.0735 16.3975 29.5794C16.081 29.2849 15.8935 28.8773 15.8759 28.4453C15.8582 28.0134 16.0118 27.5919 16.3032 27.2725C16.5946 26.9531 17.0003 26.7617 17.4321 26.7398C17.8639 26.7179 18.2869 26.8674 18.6091 27.1556C20.0528 28.4725 21.4069 29.3344 22.54 29.7456C23.6819 30.1613 24.3994 30.0628 24.8281 29.8135C25.1869 29.6056 25.55 29.1835 25.7862 28.3544C26.0269 27.5144 26.1034 26.3638 25.9437 24.9419C25.6266 22.1003 24.4125 18.4953 22.3059 14.851C21.3942 13.2654 20.3515 11.7587 19.1888 10.3469C19.0514 10.1809 18.9481 9.9894 18.8848 9.78345C18.8215 9.5775 18.7994 9.3611 18.8197 9.14659C18.84 8.93208 18.9023 8.72368 19.0032 8.53328C19.1041 8.34287 19.2414 8.1742 19.4075 8.0369" fill="#0EB405"/>
<path d="M31.7188 17.9506C31.7188 17.3163 31.2506 16.3778 29.6341 15.3694C29.4512 15.2552 29.2927 15.1061 29.1674 14.9306C29.0422 14.7552 28.9528 14.5568 28.9042 14.3467C28.8557 14.1367 28.849 13.9191 28.8845 13.7065C28.92 13.4939 28.9971 13.2903 29.1112 13.1075C29.3419 12.7382 29.7097 12.4757 30.1339 12.3776C30.3439 12.3291 30.5615 12.3224 30.7741 12.3579C30.9867 12.3934 31.1903 12.4705 31.3731 12.5847C33.355 13.825 35 15.6275 35 17.9506C35 20.2781 33.3462 22.085 31.3556 23.3253C30.9866 23.5468 30.5453 23.6144 30.1269 23.5135C29.7085 23.4126 29.3465 23.1513 29.1189 22.786C28.8913 22.4207 28.8164 21.9806 28.9103 21.5606C29.0043 21.1405 29.2595 20.7742 29.6209 20.5406C31.2484 19.5256 31.7188 18.585 31.7188 17.9506ZM24.8566 24.1456C24.8926 24.3581 24.8865 24.5755 24.8385 24.7856C24.7906 24.9957 24.7017 25.1942 24.5769 25.3699C24.4522 25.5456 24.2941 25.6951 24.1116 25.8097C23.9291 25.9243 23.7259 26.0018 23.5134 26.0378C21.526 26.3677 19.5146 26.5316 17.5 26.5278C12.95 26.5278 8.75 25.725 5.62844 24.3578C4.06875 23.6775 2.70594 22.8222 1.70844 21.7897C0.7 20.7528 0 19.4491 0 17.9506C0 16.135 1.01938 14.6256 2.37344 13.4881C3.73406 12.3484 5.58906 11.4363 7.7 10.7669C8.11481 10.6352 8.56496 10.6737 8.9514 10.8739C9.14275 10.973 9.31269 11.1088 9.45154 11.2736C9.59039 11.4384 9.69542 11.629 9.76062 11.8344C9.82583 12.0398 9.84995 12.256 9.83159 12.4707C9.81324 12.6854 9.75277 12.8944 9.65364 13.0858C9.55452 13.2771 9.41867 13.4471 9.25387 13.5859C9.08906 13.7248 8.89852 13.8298 8.69312 13.895C6.83375 14.4856 5.4075 15.2272 4.48438 16.0038C3.5525 16.7825 3.28125 17.4541 3.28125 17.9506C3.28125 18.3663 3.46719 18.8913 4.06656 19.5103C4.67469 20.1381 5.63281 20.7791 6.94313 21.3522C9.56156 22.4984 13.2913 23.2466 17.5 23.2466C19.4359 23.2466 21.2778 23.0891 22.9644 22.8025C23.1768 22.7664 23.3943 22.7726 23.6043 22.8205C23.8144 22.8685 24.013 22.9574 24.1887 23.0821C24.3644 23.2068 24.5138 23.365 24.6284 23.5474C24.743 23.7299 24.8205 23.9332 24.8566 24.1456Z" fill="#0EB405"/>
<path d="M10.6575 29.8156C11.2044 30.1328 12.2522 30.1962 13.9366 29.3015C14.1269 29.2004 14.3352 29.1378 14.5498 29.1172C14.7643 29.0966 14.9808 29.1184 15.1868 29.1815C15.3929 29.2446 15.5845 29.3476 15.7508 29.4848C15.917 29.6219 16.0547 29.7904 16.1558 29.9807C16.2569 30.1711 16.3195 30.3794 16.3401 30.5939C16.3607 30.8085 16.3389 31.025 16.2758 31.231C16.2127 31.4371 16.1097 31.6287 15.9725 31.795C15.8354 31.9612 15.6669 32.0988 15.4766 32.2C13.4116 33.2959 11.0272 33.8187 9.01687 32.6593C6.99999 31.4934 6.26062 29.1593 6.18406 26.8143C6.17611 26.3835 6.33796 25.9669 6.63466 25.6544C6.93135 25.3419 7.33906 25.1587 7.76971 25.1444C8.20036 25.13 8.61937 25.2856 8.93623 25.5776C9.25308 25.8696 9.44234 26.2746 9.46312 26.705C9.52874 28.619 10.1062 29.4984 10.6575 29.8156ZM8.72374 20.7746C8.31593 20.6232 7.98498 20.3159 7.80366 19.9205C7.62235 19.525 7.60552 19.0738 7.75687 18.6659C8.41749 16.8831 9.28156 15.0412 10.3381 13.2125C12.6131 9.27059 15.4087 6.03746 18.1519 4.01621C19.5212 3.00777 20.9431 2.25308 22.3366 1.90527C23.7387 1.55527 25.2175 1.59683 26.5147 2.34715C28.0897 3.25496 28.8859 4.89121 29.1922 6.63465C29.5006 8.38246 29.3628 10.4431 28.8859 12.6065C28.8473 12.8242 28.7652 13.0317 28.6444 13.2168C28.5236 13.4019 28.3666 13.5607 28.1829 13.6836C27.9992 13.8065 27.7926 13.8911 27.5754 13.9321C27.3583 13.9732 27.135 13.97 26.9191 13.9226C26.7032 13.8753 26.4991 13.7848 26.3191 13.6567C26.139 13.5285 25.9867 13.3652 25.8713 13.1767C25.7559 12.9882 25.6798 12.7784 25.6475 12.5597C25.6152 12.3411 25.6274 12.1181 25.6834 11.9043C26.1012 9.99684 26.1712 8.39121 25.9612 7.20121C25.7512 6.00683 25.305 5.4359 24.8762 5.18871C24.5175 4.9809 23.9684 4.87808 23.1328 5.08808C22.2841 5.30027 21.2516 5.80996 20.0987 6.65871C17.7975 8.35183 15.2819 11.2087 13.1797 14.8531C12.2604 16.4363 11.4753 18.0936 10.8325 19.8078C10.681 20.2156 10.3738 20.5465 9.97832 20.7279C9.58287 20.9092 9.1316 20.926 8.72374 20.7746Z" fill="#0EB405"/>
<path d="M20.6938 17.6444C20.6938 18.4335 20.3803 19.1902 19.8224 19.7481C19.2645 20.306 18.5078 20.6194 17.7188 20.6194C16.9298 20.6194 16.1731 20.306 15.6151 19.7481C15.0572 19.1902 14.7438 18.4335 14.7438 17.6444C14.7438 16.8554 15.0572 16.0987 15.6151 15.5408C16.1731 14.9829 16.9298 14.6694 17.7188 14.6694C18.5078 14.6694 19.2645 14.9829 19.8224 15.5408C20.3803 16.0987 20.6938 16.8554 20.6938 17.6444Z" fill="#0EB405"/>
</svg>
