<svg width="35" height="35" viewBox="0 0 35 35" fill="none" xmlns="http://www.w3.org/2000/svg"> <rect width="35" height="35" fill="white"/> <path d="M10.6094 5.18853C10.0603 5.50572 9.48281 6.37853 9.415 8.28603C9.39575 8.71811 9.20665 9.12511 8.88885 9.41848C8.57106 9.71186 8.15027 9.86788 7.71803 9.85259C7.28579 9.83731 6.87707 9.65197 6.58079 9.33688C6.2845 9.02179 6.12463 8.60245 6.13594 8.17009C6.21906 5.83384 6.95844 3.50853 8.96875 2.34697C10.9856 1.18322 13.3766 1.71259 15.4459 2.81509C15.83 3.01989 16.117 3.36887 16.2437 3.78526C16.3705 4.20165 16.3267 4.65134 16.1219 5.0354C15.9171 5.41947 15.5681 5.70645 15.1517 5.83321C14.7353 5.95998 14.2856 5.91614 13.9016 5.71134C12.2106 4.8079 11.1606 4.87353 10.6094 5.18853ZM19.4053 8.03009C19.5713 7.89277 19.7628 7.78949 19.9688 7.72616C20.1747 7.66284 20.3911 7.6407 20.6056 7.66101C20.8201 7.68132 21.0285 7.74369 21.2189 7.84455C21.4093 7.94541 21.578 8.08279 21.7153 8.24884C22.9966 9.80383 24.1454 11.4634 25.1497 13.2101C27.4247 17.152 28.8269 21.1901 29.2053 24.5763C29.3934 26.2673 29.3366 27.8773 28.9428 29.2576C28.5425 30.6467 27.7681 31.9045 26.4688 32.6548C24.8959 33.5626 23.0781 33.4357 21.4178 32.8298C19.7509 32.2217 18.0337 31.0732 16.3975 29.5792C16.081 29.2846 15.8935 28.8771 15.8759 28.4451C15.8582 28.0131 16.0118 27.5916 16.3032 27.2723C16.5946 26.9529 17.0003 26.7614 17.4321 26.7396C17.8639 26.7177 18.2869 26.8671 18.6091 27.1554C20.0528 28.4723 21.4069 29.3342 22.54 29.7454C23.6819 30.161 24.3994 30.0626 24.8281 29.8132C25.1869 29.6054 25.55 29.1832 25.7862 28.3542C26.0269 27.5142 26.1034 26.3635 25.9437 24.9417C25.6266 22.1001 24.4125 18.4951 22.3059 14.8507C21.3942 13.2651 20.3515 11.7585 19.1888 10.3467C19.0514 10.1806 18.9481 9.98916 18.8848 9.78321C18.8215 9.57726 18.7994 9.36085 18.8197 9.14635C18.84 8.93184 18.9023 8.72343 19.0032 8.53303C19.1041 8.34263 19.2414 8.17396 19.4075 8.03665" fill="#0EB405"/> <path d="M31.7188 17.9506C31.7188 17.3163 31.2506 16.3778 29.6341 15.3694C29.4512 15.2552 29.2927 15.1061 29.1674 14.9306C29.0422 14.7552 28.9528 14.5568 28.9042 14.3467C28.8557 14.1367 28.849 13.9191 28.8845 13.7065C28.92 13.4939 28.9971 13.2903 29.1112 13.1075C29.3419 12.7382 29.7097 12.4757 30.1339 12.3776C30.3439 12.3291 30.5615 12.3224 30.7741 12.3579C30.9867 12.3934 31.1903 12.4705 31.3731 12.5847C33.355 13.825 35 15.6275 35 17.9506C35 20.2781 33.3462 22.085 31.3556 23.3253C30.9866 23.5468 30.5453 23.6144 30.1269 23.5135C29.7085 23.4126 29.3465 23.1513 29.1189 22.786C28.8913 22.4207 28.8164 21.9806 28.9103 21.5606C29.0043 21.1405 29.2595 20.7742 29.6209 20.5406C31.2484 19.5256 31.7188 18.585 31.7188 17.9506ZM24.8566 24.1456C24.8926 24.3581 24.8865 24.5755 24.8385 24.7856C24.7906 24.9957 24.7017 25.1942 24.5769 25.3699C24.4522 25.5456 24.2941 25.6951 24.1116 25.8097C23.9291 25.9243 23.7259 26.0018 23.5134 26.0378C21.526 26.3677 19.5146 26.5316 17.5 26.5278C12.95 26.5278 8.75 25.725 5.62844 24.3578C4.06875 23.6775 2.70594 22.8222 1.70844 21.7897C0.7 20.7528 0 19.4491 0 17.9506C0 16.135 1.01938 14.6256 2.37344 13.4881C3.73406 12.3484 5.58906 11.4363 7.7 10.7669C8.11481 10.6352 8.56496 10.6737 8.9514 10.8739C9.14275 10.973 9.31269 11.1088 9.45154 11.2736C9.59039 11.4384 9.69542 11.629 9.76062 11.8344C9.82583 12.0398 9.84995 12.256 9.83159 12.4707C9.81324 12.6854 9.75277 12.8944 9.65364 13.0858C9.55452 13.2771 9.41867 13.4471 9.25387 13.5859C9.08906 13.7248 8.89852 13.8298 8.69312 13.895C6.83375 14.4856 5.4075 15.2272 4.48438 16.0038C3.5525 16.7825 3.28125 17.4541 3.28125 17.9506C3.28125 18.3663 3.46719 18.8913 4.06656 19.5103C4.67469 20.1381 5.63281 20.7791 6.94313 21.3522C9.56156 22.4984 13.2913 23.2466 17.5 23.2466C19.4359 23.2466 21.2778 23.0891 22.9644 22.8025C23.1768 22.7664 23.3943 22.7726 23.6043 22.8205C23.8144 22.8685 24.013 22.9574 24.1887 23.0821C24.3644 23.2068 24.5138 23.365 24.6284 23.5474C24.743 23.7299 24.8205 23.9332 24.8566 24.1456Z" fill="#0EB405"/> <path d="M10.6575 29.8157C11.2044 30.1329 12.2522 30.1963 13.9366 29.3016C14.1269 29.2005 14.3352 29.1379 14.5498 29.1173C14.7643 29.0967 14.9808 29.1186 15.1868 29.1816C15.3929 29.2447 15.5845 29.3478 15.7508 29.4849C15.917 29.622 16.0547 29.7906 16.1558 29.9809C16.2569 30.1712 16.3195 30.3795 16.3401 30.5941C16.3607 30.8086 16.3389 31.0251 16.2758 31.2311C16.2127 31.4372 16.1097 31.6289 15.9725 31.7951C15.8354 31.9614 15.6669 32.099 15.4766 32.2001C13.4116 33.296 11.0272 33.8188 9.01687 32.6595C6.99999 31.4935 6.26062 29.1595 6.18406 26.8145C6.17611 26.3836 6.33796 25.967 6.63466 25.6545C6.93135 25.3421 7.33906 25.1588 7.76971 25.1445C8.20036 25.1301 8.61937 25.2857 8.93623 25.5778C9.25308 25.8698 9.44234 26.2747 9.46312 26.7051C9.52874 28.6191 10.1062 29.4985 10.6575 29.8157ZM8.72374 20.7748C8.31593 20.6233 7.98498 20.316 7.80366 19.9206C7.62235 19.5252 7.60552 19.0739 7.75687 18.666C8.41749 16.8832 9.28156 15.0413 10.3381 13.2126C12.6131 9.27071 15.4087 6.03758 18.1519 4.01633C19.5212 3.00789 20.9431 2.25321 22.3366 1.90539C23.7387 1.55539 25.2175 1.59696 26.5147 2.34727C28.0897 3.25508 28.8859 4.89133 29.1922 6.63477C29.5006 8.38258 29.3628 10.4432 28.8859 12.6066C28.8473 12.8243 28.7652 13.0319 28.6444 13.2169C28.5236 13.402 28.3666 13.5608 28.1829 13.6837C27.9992 13.8066 27.7926 13.8912 27.5754 13.9323C27.3583 13.9733 27.135 13.9701 26.9191 13.9228C26.7032 13.8754 26.4991 13.785 26.3191 13.6568C26.139 13.5286 25.9867 13.3654 25.8713 13.1769C25.7559 12.9884 25.6798 12.7785 25.6475 12.5598C25.6152 12.3412 25.6274 12.1183 25.6834 11.9045C26.1012 9.99696 26.1712 8.39133 25.9612 7.20133C25.7512 6.00696 25.305 5.43602 24.8762 5.18883C24.5175 4.98102 23.9684 4.87821 23.1328 5.08821C22.2841 5.30039 21.2516 5.81008 20.0987 6.65883C17.7975 8.35196 15.2819 11.2088 13.1797 14.8532C12.2604 16.4364 11.4753 18.0937 10.8325 19.8079C10.681 20.2157 10.3738 20.5467 9.97832 20.728C9.58287 20.9093 9.1316 20.9261 8.72374 20.7748Z" fill="#0EB405"/> <path d="M20.6938 17.6444C20.6938 18.4335 20.3803 19.1902 19.8224 19.7481C19.2645 20.306 18.5078 20.6194 17.7188 20.6194C16.9298 20.6194 16.1731 20.306 15.6151 19.7481C15.0572 19.1902 14.7438 18.4335 14.7438 17.6444C14.7438 16.8554 15.0572 16.0987 15.6151 15.5408C16.1731 14.9829 16.9298 14.6694 17.7188 14.6694C18.5078 14.6694 19.2645 14.9829 19.8224 15.5408C20.3803 16.0987 20.6938 16.8554 20.6938 17.6444Z" fill="#0EB405"/> </svg>