<svg width="35" height="35" viewBox="0 0 35 35" fill="none" xmlns="http://www.w3.org/2000/svg"> <path d="M17.2004 0.875658C15.6989 -0.291886 13.6344 -0.291886 12.133 0.875658L1.68926 8.99682C0.398739 10.0003 -0.227609 11.6785 0.0752028 13.3213L2.54004 26.6936C2.92045 28.7574 4.66126 30.25 6.6878 30.25H8.74676C10.9526 30.25 12.2932 27.9404 11.7727 25.9571C11.3484 24.3409 11.0917 22.5118 11.4485 21.1592C11.6172 20.52 11.9084 20.0409 12.3466 19.7094C12.7908 19.3734 13.5025 19.1014 14.6629 19.1053C15.8186 19.1091 16.5298 19.3845 16.9753 19.7237C17.415 20.0584 17.7068 20.5396 17.8761 21.1777C18.234 22.5272 17.9813 24.3471 17.5603 25.9564C17.0416 27.9392 18.3814 30.25 20.5881 30.25H22.6455C24.6721 30.25 26.4129 28.7574 26.7933 26.6936L29.2581 13.3213C29.5609 11.6785 28.9346 10.0003 27.6441 8.99682L17.2004 0.875658Z" fill="#A4A4A4"/> </svg>