<svg width="102" height="84" viewBox="0 0 102 84" fill="none" xmlns="http://www.w3.org/2000/svg"> <g filter="url(#filter0_f_0_1)"> <circle cx="51" cy="51" r="23" fill="#FFFBFB" fill-opacity="0.4"/> </g> <circle cx="51" cy="39" r="30" fill="#969696"/> <path d="M43.9884 30.9166H47.4884C48.1324 30.9166 48.5833 30.856 48.5833 31.5V30.3333C48.5833 29.6893 48.1324 29.1666 47.4884 29.1666H42.8217C41.6551 29.1666 40.7317 30.4062 41.0717 32.0833C41.0717 32.0833 42.1165 37.552 42.19 37.8921C42.3842 38.7916 43.429 39.6666 44.5472 39.6666H48.6061C49.2506 39.6666 48.5833 38.5606 48.5833 37.9166V36.75C48.5833 37.394 48.1324 37.9166 47.4884 37.9166H45.1551C44.5111 37.9166 44.0858 37.3088 43.9884 36.75C43.891 36.1911 43.0644 32.4724 43.0644 32.4724C42.8702 31.3541 43.3438 30.9166 43.9884 30.9166ZM59.0454 30.9166H55.5454C54.9014 30.9166 53.8333 30.856 53.8333 31.5V30.3333C53.8333 29.6893 54.9014 29.1666 55.5454 29.1666H60.2121C61.3787 29.1666 62.3027 30.4062 61.9621 32.0833C61.9621 32.0833 61.0095 37.5777 60.929 37.9166C60.7225 38.7916 59.7378 39.6666 58.5956 39.6666H54.4271C53.7831 39.6666 53.8333 38.5606 53.8333 37.9166V36.75C53.8333 37.394 54.9014 37.9166 55.5454 37.9166H57.8787C58.5227 37.9166 58.9486 37.3088 59.0454 36.75C59.1422 36.1911 59.9694 32.4724 59.9694 32.4724C60.1631 31.3541 59.69 30.9166 59.0454 30.9166ZM53.152 40.8333C53.152 36.7745 51.5717 40.8333 51.5717 40.8333C51.5717 40.8333 49.8217 36.7745 49.8217 40.8333C49.8217 44.8921 47.902 46.6666 47.902 46.6666H55.0723C55.0717 46.6666 53.152 44.8921 53.152 40.8333Z" fill="white"/> <path d="M57.9884 31.8366C57.9884 35.7887 54.0393 42.4486 51.5718 42.4486C49.1043 42.4486 45.1551 35.7887 45.1551 31.8366C45.1551 28.8062 45.7384 28.1505 46.9051 28.1505C47.7066 28.1505 50.4197 28.1347 51.5718 28.1347L55.6551 28.1342C57.3567 28.1336 57.9884 28.5332 57.9884 31.8366Z" fill="white"/> <path d="M56.75 47.25C56.75 47.894 56.8824 48.4167 56.2384 48.4167H46.9051C46.2605 48.4167 46.25 47.894 46.25 47.25V46.6667C46.25 46.0227 46.929 45.5 47.5368 45.5H55.6551C56.2629 45.5 56.75 46.0227 56.75 46.6667V47.25Z" fill="white"/> <path d="M57.9166 48.1979C57.9166 48.6412 58.0129 49 57.1863 49H45.9571C45.2035 49 45.0833 48.6412 45.0833 48.1979V48.0521C45.0833 47.6087 45.5138 47.25 45.9571 47.25H57.1863C57.6291 47.25 57.9166 47.6087 57.9166 48.0521V48.1979Z" fill="white"/> <defs> <filter id="filter0_f_0_1" x="0" y="0" width="102" height="102" filterUnits="userSpaceOnUse" color-interpolation-filters="sRGB"> <feFlood flood-opacity="0" result="BackgroundImageFix"/> <feBlend mode="normal" in="SourceGraphic" in2="BackgroundImageFix" result="shape"/> <feGaussianBlur stdDeviation="14" result="effect1_foregroundBlur_0_1"/> </filter> </defs> </svg>